<svg width="42" height="29" viewBox="0 0 42 29" fill="none" xmlns="http://www.w3.org/2000/svg">
<path d="M0.352612 9.47882C0.128647 9.67115 0.0018692 9.9325 4.95911e-05 10.2056C-0.00141907 10.3412 0.0290947 10.4755 0.0897179 10.6005C0.150345 10.7255 0.239799 10.8384 0.352612 10.9324L20.1466 28.0703C20.2563 28.1665 20.387 28.243 20.5311 28.2951C20.6752 28.3473 20.8298 28.3741 20.986 28.3741C21.1422 28.3741 21.2968 28.3473 21.4409 28.2951C21.5851 28.243 21.7158 28.1665 21.8255 28.0703L41.6236 10.9324C41.74 10.8382 41.8332 10.7246 41.8979 10.5986C41.9625 10.4725 41.9972 10.3364 41.9998 10.1985C42.0025 10.0606 41.9731 9.92362 41.9133 9.79575C41.8536 9.66787 41.7648 9.55171 41.6521 9.45417C41.5394 9.35663 41.4053 9.27971 41.2576 9.22799C41.1099 9.17627 40.9517 9.1508 40.7924 9.1531C40.6331 9.1554 40.476 9.18542 40.3303 9.24138C40.1847 9.29733 40.0536 9.37808 39.9448 9.47882L20.986 25.8899L2.03149 9.47882C1.92149 9.38301 1.7907 9.30697 1.64664 9.25509C1.50257 9.2032 1.34808 9.17649 1.19205 9.17649C1.03602 9.17649 0.881531 9.2032 0.737469 9.25509C0.593407 9.30697 0.462608 9.38301 0.352612 9.47882Z" fill="#27B7BF"/>
<path d="M4.28545 0.263793C4.10414 0.41949 4.00151 0.631061 4.00004 0.852152C3.99885 0.961878 4.02355 1.07066 4.07263 1.17183C4.12171 1.273 4.19413 1.36443 4.28545 1.44051L20.3091 15.314C20.398 15.3919 20.5038 15.4538 20.6204 15.496C20.7371 15.5383 20.8622 15.56 20.9887 15.56C21.1151 15.56 21.2403 15.5383 21.357 15.496C21.4736 15.4538 21.5794 15.3919 21.6682 15.314L37.6953 1.44051C37.7895 1.36423 37.865 1.27232 37.9173 1.17026C37.9696 1.06819 37.9977 0.958056 37.9999 0.846407C38.002 0.734757 37.9782 0.623874 37.9298 0.520356C37.8815 0.416838 37.8096 0.322801 37.7184 0.243841C37.6272 0.164882 37.5186 0.102614 37.399 0.0607434C37.2794 0.0188724 37.1514 -0.00174578 37.0224 0.000115695C36.8935 0.00197717 36.7663 0.0262803 36.6484 0.0715789C36.5305 0.116877 36.4243 0.182246 36.3362 0.263793L20.9887 13.5489L5.64454 0.263793C5.55549 0.186232 5.44961 0.124681 5.33299 0.0826792C5.21637 0.0406775 5.0913 0.0190546 4.96499 0.0190546C4.83868 0.0190546 4.71362 0.0406775 4.597 0.0826792C4.48038 0.124681 4.37449 0.186232 4.28545 0.263793Z" fill="#27B7BF"/>
</svg>
