<svg width="14" height="11" viewBox="0 0 14 11" fill="none" xmlns="http://www.w3.org/2000/svg">
<path d="M12.6152 0.000616629C12.2653 0.0125255 11.9337 0.16339 11.6909 0.421151C9.11574 3.0572 7.14908 5.25884 4.75899 7.75046L2.21307 5.55339C2.07798 5.43671 1.92167 5.34842 1.75312 5.29355C1.58456 5.23868 1.40705 5.21832 1.23078 5.23364C1.0545 5.24896 0.88292 5.29965 0.725859 5.38281C0.568798 5.46598 0.429345 5.57999 0.315492 5.71829C0.201639 5.8566 0.115622 6.01649 0.0623695 6.18881C0.00911727 6.36113 -0.0103233 6.54249 0.0051611 6.72249C0.0206455 6.9025 0.0707508 7.07762 0.152606 7.23782C0.234462 7.39801 0.346458 7.54015 0.48218 7.65606L3.97757 10.677C4.23474 10.8983 4.56376 11.0131 4.89972 10.9988C5.23569 10.9845 5.55421 10.8421 5.79248 10.5998C8.68826 7.63564 10.7496 5.2681 13.5899 2.36076C13.785 2.16817 13.9184 1.91982 13.9728 1.64832C14.0271 1.37683 13.9997 1.09488 13.8943 0.839556C13.7889 0.58423 13.6103 0.367456 13.382 0.217723C13.1537 0.06799 12.8864 -0.00768444 12.6152 0.000616629Z" fill="#27B7BF"/>
</svg>
