<svg width="16" height="16" viewBox="0 0 16 16" fill="none" xmlns="http://www.w3.org/2000/svg">
<path d="M0.981652 15.9999C0.730539 15.9999 0.479426 15.904 0.287537 15.7125C-0.0958456 15.3295 -0.0958456 14.7076 0.287537 14.3242L14.3242 0.287537C14.7076 -0.0958456 15.3287 -0.0958456 15.7125 0.287537C16.0958 0.670525 16.0958 1.29239 15.7125 1.67577L1.67577 15.7125C1.48388 15.9044 1.23277 15.9999 0.981652 15.9999Z" fill="#27B7BF"/>
<path d="M15.0183 15.9999C14.7672 15.9999 14.5161 15.904 14.3242 15.7125L0.287537 1.67577C-0.0958456 1.29278 -0.0958456 0.670919 0.287537 0.287537C0.670919 -0.0958456 1.29199 -0.0958456 1.67577 0.287537L15.7125 14.3242C16.0958 14.7072 16.0958 15.3291 15.7125 15.7125C15.5206 15.9044 15.2695 15.9999 15.0183 15.9999Z" fill="#27B7BF"/>
</svg>
