<svg width="70" height="82" viewBox="0 0 70 82" fill="none" xmlns="http://www.w3.org/2000/svg">
<rect y="0.524658" width="70" height="81.4754" fill="white"/>
<path d="M54.8377 42.8725V12.046C54.8389 11.8709 54.8067 11.6972 54.7428 11.5351C54.6789 11.3729 54.5846 11.2254 54.4654 11.1012C54.3462 10.9769 54.2045 10.8782 54.0483 10.8109C53.8922 10.7436 53.7247 10.709 53.5556 10.709H11.8899C11.7207 10.709 11.5532 10.7436 11.3971 10.8109C11.2409 10.8782 11.0992 10.9769 10.98 11.1012C10.8608 11.2254 10.7666 11.3729 10.7027 11.5351C10.6388 11.6972 10.6065 11.8709 10.6077 12.046V65.8182C10.6065 65.9933 10.6388 66.167 10.7027 66.3291C10.7666 66.4913 10.8608 66.6388 10.98 66.7631C11.0992 66.8873 11.2409 66.986 11.3971 67.0533C11.5532 67.1206 11.7207 67.1552 11.8899 67.1552H31.8407" stroke="#C9C9C9" stroke-opacity="0.3" stroke-width="3" stroke-miterlimit="10"/>
<path d="M18.2827 20.1995H40.4796" stroke="#C9C9C9" stroke-opacity="0.3" stroke-width="3" stroke-linecap="round" stroke-linejoin="round"/>
<path d="M18.2827 26.5647H40.4796" stroke="#C9C9C9" stroke-opacity="0.3" stroke-width="3" stroke-linecap="round" stroke-linejoin="round"/>
<path d="M17.9824 32.929H40.1702" stroke="#C9C9C9" stroke-opacity="0.3" stroke-width="3" stroke-linecap="round" stroke-linejoin="round"/>
<path d="M17.9824 41.5164H22.2017" stroke="#C9C9C9" stroke-opacity="0.3" stroke-width="3" stroke-linecap="round" stroke-linejoin="round"/>
<path d="M43.1343 71.8156C52.2093 71.8156 59.566 64.1983 59.566 54.8017C59.566 45.4052 52.2093 37.7878 43.1343 37.7878C34.0593 37.7878 26.7026 45.4052 26.7026 54.8017C26.7026 64.1983 34.0593 71.8156 43.1343 71.8156Z" stroke="#C9C9C9" stroke-opacity="0.3" stroke-width="3" stroke-miterlimit="10"/>
<path d="M35.741 57.6649L41.2879 62.6928L50.5268 46.9124" stroke="#C9C9C9" stroke-opacity="0.3" stroke-width="3" stroke-linecap="round" stroke-linejoin="round"/>
</svg>
