<svg width="74" height="70" viewBox="0 0 74 70" fill="none" xmlns="http://www.w3.org/2000/svg">
<rect width="74" height="70" fill="white"/>
<path d="M17.4722 18.177C16.8852 18.177 16.4094 18.6523 16.4094 19.2397V22.2951C16.4094 22.8825 16.8852 23.3578 17.4722 23.3578C18.059 23.3578 18.5349 22.8825 18.5349 22.2951V19.2397C18.5349 18.6523 18.059 18.177 17.4722 18.177Z" fill="#EFEFEF"/>
<path d="M21.8559 18.177C21.2691 18.177 20.7932 18.6523 20.7932 19.2397V22.2951C20.7932 22.8825 21.2691 23.3578 21.8559 23.3578C22.4429 23.3578 22.9187 22.8825 22.9187 22.2951V19.2397C22.9187 18.6523 22.4429 18.177 21.8559 18.177Z" fill="#EFEFEF"/>
<path d="M26.2397 18.177C25.6528 18.177 25.177 18.6523 25.177 19.2397V22.2951C25.177 22.8825 25.6528 23.3578 26.2397 23.3578C26.8266 23.3578 27.3025 22.8825 27.3025 22.2951V19.2397C27.3025 18.6523 26.8266 18.177 26.2397 18.177Z" fill="#EFEFEF"/>
<path d="M55.6638 19.7046H35.7378C35.1509 19.7046 34.675 20.1799 34.675 20.7673C34.675 21.3547 35.1509 21.83 35.7378 21.83H55.6638C56.2507 21.83 56.7265 21.3547 56.7265 20.7673C56.7265 20.1799 56.2507 19.7046 55.6638 19.7046Z" fill="#EFEFEF"/>
<path d="M63.1363 28.4722V13.0627C63.1363 12.4753 62.6605 12 62.0735 12H11.0627C10.4758 12 10 12.4753 10 13.0627V28.4722V43.8818C10 44.4692 10.4758 44.9445 11.0627 44.9445H35.5054V48.3964C33.6873 48.8061 32.2576 50.236 31.8479 52.0535H16.312C15.7251 52.0535 15.2493 52.5288 15.2493 53.1162C15.2493 53.7037 15.7251 54.179 16.312 54.179H31.8478C32.3346 56.3404 34.2618 57.9629 36.5681 57.9629C38.8739 57.9629 40.8012 56.3404 41.2879 54.179H56.8238C57.4106 54.179 57.8865 53.7037 57.8865 53.1162C57.8865 52.5288 57.4106 52.0535 56.8238 52.0535H41.2879C40.8781 50.2361 39.4486 48.8063 37.6309 48.3965V44.9445H62.0735C62.6605 44.9445 63.1363 44.4692 63.1363 43.8818V28.4722ZM39.2883 53.1162C39.2883 54.617 38.0678 55.8374 36.5681 55.8374C35.068 55.8374 33.8475 54.617 33.8475 53.1162C33.8475 51.6166 35.068 50.3961 36.5681 50.3961C38.0678 50.3961 39.2883 51.6166 39.2883 53.1162ZM12.1255 14.1255H61.0108V27.4095H12.1255V14.1255ZM61.0108 42.819H12.1255V29.5349H61.0108V42.819Z" fill="#EFEFEF"/>
<path d="M17.4722 38.7675C18.059 38.7675 18.5349 38.2921 18.5349 37.7048V34.6494C18.5349 34.062 18.059 33.5867 17.4722 33.5867C16.8852 33.5867 16.4094 34.062 16.4094 34.6494V37.7048C16.4094 38.2921 16.8852 38.7675 17.4722 38.7675Z" fill="#EFEFEF"/>
<path d="M21.8559 38.7675C22.4429 38.7675 22.9187 38.2921 22.9187 37.7048V34.6494C22.9187 34.062 22.4429 33.5867 21.8559 33.5867C21.2691 33.5867 20.7932 34.062 20.7932 34.6494V37.7048C20.7932 38.2921 21.2691 38.7675 21.8559 38.7675Z" fill="#EFEFEF"/>
<path d="M26.2397 38.7675C26.8266 38.7675 27.3025 38.2921 27.3025 37.7048V34.6494C27.3025 34.062 26.8266 33.5867 26.2397 33.5867C25.6528 33.5867 25.177 34.062 25.177 34.6494V37.7048C25.177 38.2921 25.6528 38.7675 26.2397 38.7675Z" fill="#EFEFEF"/>
<path d="M35.7378 37.2397H55.6638C56.2507 37.2397 56.7265 36.7644 56.7265 36.177C56.7265 35.5897 56.2507 35.1143 55.6638 35.1143H35.7378C35.1509 35.1143 34.675 35.5897 34.675 36.177C34.675 36.7644 35.1509 37.2397 35.7378 37.2397Z" fill="#EFEFEF"/>
</svg>
